<svg xmlns="http://www.w3.org/2000/svg" viewBox="0 0 979.74 501.26"><defs><style>.cls-1{fill:#fff;}</style></defs><title>360 vieew</title><g id="Layer_2" data-name="Layer 2"><g id="Icon"><path class="cls-1" d="M228.5,106.77c1.25-50.1,42.64-66.9,72.51-66.9,40.46,0,67.53,27.38,67.53,60.68,0,28.32-19,41.7-30.81,48.24,42,14.31,44.2,47.61,44.2,57.88,0,41.08-36.41,72.2-81.54,72.2-25.21,0-53.22-10-67.53-30.81-10.27-14-12.76-31.12-13.38-41.7h46.68c1.24,14.63,12.45,31.43,35.16,31.74,22.41,0,34.24-15.56,34.24-34.85,0-22.72-21.48-33-39.53-33H277.36V135.72h10.27c15.87,0,34.54-9,34.54-28.63,0-14-8.09-26.46-23-26.46-19.61,0-24.28,15.88-24.9,26.14Z"/><path class="cls-1" d="M532.76,44.22,489.5,104.91c-3.11,4.67-6.53,9-10,14,2.49-1.24,11.21-3.42,18.37-3.42,35.16,0,73.13,27.07,73.13,77.8,0,49.79-38.59,85.58-85.89,85.58-28.32,0-53.22-10.89-67.85-29.87-14-15.88-19.29-38.28-19.29-55.71,0-24.27,10-43.88,20.85-60.68l60.37-88.39Zm-89,153.12c0,24.58,18.67,40.76,39.83,40.76,23,0,41.08-17.74,41.08-40.76s-17.43-41.08-40.77-41.08c-20.54,0-40.14,15.56-40.14,40.76Z"/><path class="cls-1" d="M588.77,124.51c0-66.6,54.46-84.64,83.09-84.64,32.37,0,82.47,21.78,82.47,84v71c0,62.86-49.79,84-81.85,84-32.36,0-83.71-21.16-83.71-84Zm46.37,71.58c0,20.85,11.2,42,36.41,42,25.83,0,36.41-24.27,36.41-42V122.65c0-13.07-5-42-36.72-42-25.83,0-36.1,22.1-36.1,42.33Z"/><path class="cls-1" d="M798.1,159.3v17c80.67,22.41,130.66,53.54,130.66,88,0,53.29-119.86,98.71-287.82,116v50.46c196.61-20.42,338.8-79.6,338.8-149.4C979.74,232.07,908.9,188.09,798.1,159.3Z"/><path class="cls-1" d="M511.44,387.64q-10.72.15-21.57.16C247.48,387.8,51,332.48,51,264.24c0-34.42,50-65.55,130.67-88v-17C70.84,188.09,0,232.07,0,281.34c0,86.71,219.33,157,489.87,157,7.24,0,14.42-.07,21.57-.17v63.08l93.46-95.13-93.46-81.25Z"/><path class="cls-1" d="M810.22,0C786,0,764.64,18,764.64,45.82v.12c0,23.27,18.8,44.3,45.47,44.3s45.82-20.45,45.82-45.12S836.54,0,810.22,0ZM784.71,45c0-13.88,9.82-26.91,25.63-26.91,16.12,0,25.52,13.88,25.52,27.13,0,13-9.4,26.9-25.42,26.9-15.37,0-25.73-12.6-25.73-27Z"/></g></g></svg>