<svg width="31" height="31" viewBox="0 0 31 31" fill="none" xmlns="http://www.w3.org/2000/svg">
<path d="M16.2517 24.2715L14.6552 26.5938C14.4617 26.8841 14.0262 26.9808 13.6876 26.7873C13.3489 26.5938 13.3005 26.1584 13.494 25.8197L15.0906 23.4974C15.2357 23.3039 15.4293 23.2072 15.6712 23.2072C15.8163 23.2072 15.9614 23.2555 16.0582 23.3039C16.2034 23.4007 16.3001 23.5458 16.3485 23.7393C16.3969 23.9329 16.3485 24.1264 16.2517 24.2715Z" fill="#5B5A5E"/>
<path d="M16.7358 15.9986L11.8978 22.6267C11.8494 22.7234 11.7526 22.7718 11.6075 22.6751L10.398 21.8042C10.3012 21.7558 10.2529 21.6107 10.3496 21.5139L15.1877 14.8858C15.2844 14.7891 15.4296 14.7891 15.4779 14.8374L16.6874 15.7083C16.7842 15.7567 16.8326 15.9018 16.7358 15.9986Z" fill="#5B5A5E"/>
<path d="M17.6981 26.3035L16.6337 27.8517C16.4402 28.142 16.0047 28.2387 15.6661 28.0452C15.3274 27.8517 15.279 27.4163 15.4726 27.0776L16.5369 25.5294C16.6821 25.3359 16.8756 25.2391 17.1175 25.2391C17.2626 25.2391 17.3594 25.2875 17.5045 25.3359C17.7948 25.5778 17.8916 26.0132 17.6981 26.3035Z" fill="#5B5A5E"/>
<path d="M19.055 28.4323C19.0066 28.4807 18.5228 29.2064 18.5712 29.158C18.3777 29.4483 17.9422 29.5451 17.6036 29.3515C17.2649 29.158 17.2165 28.6742 17.4101 28.4323L17.8939 27.7066C18.0874 27.368 18.5228 27.3196 18.8615 27.5131C19.2001 27.755 19.2485 28.1904 19.055 28.4323Z" fill="#5B5A5E"/>
<path d="M20.7038 30.1741L20.5587 30.4643C20.3651 30.7546 19.9297 30.8514 19.591 30.6579C19.3008 30.4643 19.1556 30.0289 19.3975 29.6903L19.6394 29.3032C19.8813 29.0613 20.2684 29.0129 20.5103 29.2064C20.8489 29.4483 20.9457 29.8354 20.7038 30.1741Z" fill="#5B5A5E"/>
<path d="M26.9399 24.6102C27.1818 24.7554 27.2301 25.0456 27.085 25.2875C26.9399 25.4811 26.6496 25.5778 26.4077 25.4327L23.9403 23.691C23.7468 23.5458 23.4081 23.5942 23.263 23.7877C23.1178 24.0296 23.1662 24.3199 23.3597 24.4651L25.4401 25.9649C25.6336 26.11 25.7304 26.4003 25.5852 26.6422C25.4401 26.8841 25.1498 26.9325 24.9079 26.7873L23.021 25.4327C22.8275 25.2875 22.4889 25.3359 22.3437 25.5294C22.1986 25.7713 22.247 26.0616 22.4889 26.2068L24.3757 27.513C24.6176 27.6582 24.666 27.9968 24.5208 28.1904C24.3757 28.3839 24.0854 28.4806 23.8435 28.3355C23.7951 28.2871 21.9567 27.0776 22.0051 27.0776C21.7632 26.9325 21.4729 26.9808 21.3277 27.2228C21.1826 27.4163 21.231 27.7066 21.4729 27.9001C22.0534 28.2871 22.9727 28.9161 22.9243 28.8677C23.1178 29.0128 23.1662 29.3031 23.021 29.545C22.8759 29.7385 22.5856 29.8353 22.3437 29.6902L21.7148 29.2547C21.618 28.9161 21.3761 28.6258 21.0858 28.4323C20.7956 28.2387 20.5053 28.142 20.1666 28.142C20.1666 27.9968 20.1666 27.9001 20.1182 27.7549C20.0215 27.3195 19.7796 26.9325 19.3925 26.6906C19.199 26.5454 18.9087 26.4487 18.6668 26.4487C18.8603 25.7713 18.6184 24.9973 17.9895 24.5618C17.7476 24.4167 17.5057 24.3199 17.2638 24.3199C17.4573 23.6426 17.167 22.9169 16.5865 22.5299C16.2962 22.3363 16.0059 22.2396 15.6672 22.2396C15.135 22.2396 14.6029 22.5299 14.2642 22.9653L13.9255 23.4975C13.6836 23.2556 13.345 23.0137 13.0547 22.675L17.0703 17.208C17.6992 17.4499 18.2798 17.6918 18.7152 17.9821C18.5701 18.0789 18.4733 18.1272 18.4249 18.1756C17.5057 18.6594 17.2154 19.3367 17.1186 19.7722C17.0219 20.3527 17.3122 20.9333 17.8443 21.2236C18.7636 21.7074 20.215 21.3687 20.8439 20.7398C21.0375 20.5463 21.5213 20.1108 21.7148 20.256L26.9399 24.6102Z" fill="#5B5A5E"/>
<path d="M27.3759 22.3847C27.4243 22.5298 27.4727 22.9652 27.134 23.5458L22.296 19.5302C21.5702 18.9497 20.7478 19.4335 20.1188 20.0624C19.9253 20.2559 19.4899 20.4495 19.0061 20.4495C18.5707 20.4978 17.9901 20.3527 18.0869 19.9173C18.232 19.2883 18.8126 18.9981 18.9577 18.9013C18.9577 18.9013 19.2964 18.6594 19.7802 18.4175H19.8286C20.4575 18.1272 21.3767 17.8369 22.1992 18.1756C22.2476 18.224 23.6022 18.8045 25.0053 18.611L27.3759 22.1912V22.3847Z" fill="#5B5A5E"/>
<path d="M30.1826 22.1913L29.3602 22.7235C29.1666 22.8686 28.828 22.8202 28.6828 22.5783L25.0543 17.1113C24.9092 16.8694 24.9575 16.5791 25.1994 16.434L26.0219 15.9018C26.1187 15.8534 26.2154 15.8051 26.3122 15.8051C26.4573 15.8051 26.6509 15.9018 26.6992 16.047L30.3278 21.5139C30.4729 21.7558 30.4245 22.0461 30.1826 22.1913Z" fill="#5B5A5E"/>
<path d="M5.5524 5.30618V1.04871L1.29492 5.30618H5.5524Z" fill="#5B5A5E"/>
<path d="M21.2753 0.758545H6.51927V5.79011C6.51927 6.08039 6.32575 6.27391 6.03547 6.27391H1.00391V26.3034C1.00391 26.5937 1.19743 26.7872 1.48771 26.7872H12.5184C12.3249 26.3518 12.3733 25.7712 12.6636 25.2874L13.3409 24.2714L13.2925 24.223C13.099 24.0295 12.7603 23.7876 12.4217 23.4006C12.0346 23.7392 11.4541 23.7876 10.9703 23.449L9.76076 22.5781C9.22858 22.1911 9.13181 21.417 9.47048 20.9332L14.3085 14.3051C14.7439 13.7245 15.4696 13.6761 15.9535 14.0148L17.163 14.8856C17.6468 15.2727 17.7435 15.9016 17.55 16.3854C18.1306 16.6273 18.7111 16.8692 19.0982 17.1595L19.582 17.4498C20.1625 17.2079 20.6947 17.1111 21.2269 17.1111C21.3721 17.1111 21.5172 17.1111 21.6623 17.1595V1.24235C21.7591 1.00045 21.5656 0.758545 21.2753 0.758545ZM5.26138 21.5137H4.29377C4.00349 21.5137 3.80997 21.3202 3.80997 21.0299C3.80997 20.7397 4.00349 20.5461 4.29377 20.5461H5.26138C5.55166 20.5461 5.74519 20.7397 5.74519 21.0299C5.74519 21.3202 5.55166 21.5137 5.26138 21.5137ZM5.26138 17.6433H4.29377C4.00349 17.6433 3.80997 17.4498 3.80997 17.1595C3.80997 16.8692 4.00349 16.6757 4.29377 16.6757H5.26138C5.55166 16.6757 5.74519 16.8692 5.74519 17.1595C5.74519 17.4498 5.55166 17.6433 5.26138 17.6433ZM5.26138 13.7729H4.29377C4.00349 13.7729 3.80997 13.5794 3.80997 13.2891C3.80997 12.9988 4.00349 12.8053 4.29377 12.8053H5.26138C5.55166 12.8053 5.74519 12.9988 5.74519 13.2891C5.74519 13.5794 5.55166 13.7729 5.26138 13.7729ZM5.26138 9.90244H4.29377C4.00349 9.90244 3.80997 9.70892 3.80997 9.41864C3.80997 9.12835 4.00349 8.93483 4.29377 8.93483H5.26138C5.55166 8.93483 5.74519 9.12835 5.74519 9.41864C5.74519 9.70892 5.55166 9.90244 5.26138 9.90244ZM10.0994 17.6433H7.6804C7.39012 17.6433 7.1966 17.4498 7.1966 17.1595C7.1966 16.8692 7.39012 16.6757 7.6804 16.6757H10.0994C10.3897 16.6757 10.5832 16.8692 10.5832 17.1595C10.5832 17.4498 10.3897 17.6433 10.0994 17.6433ZM12.2282 13.7729H7.72878C7.4385 13.7729 7.24498 13.5794 7.24498 13.2891C7.24498 12.9988 7.4385 12.8053 7.72878 12.8053H12.2282C12.5184 12.8053 12.712 12.9988 12.712 13.2891C12.712 13.5794 12.4701 13.7729 12.2282 13.7729ZM18.5176 9.90244H7.6804C7.39012 9.90244 7.1966 9.70892 7.1966 9.41864C7.1966 9.12835 7.39012 8.93483 7.6804 8.93483H18.4692C18.7595 8.93483 18.953 9.12835 18.953 9.41864C19.0014 9.70892 18.7595 9.90244 18.5176 9.90244ZM18.5176 6.27391H8.84153C8.55125 6.27391 8.35773 6.08039 8.35773 5.79011C8.35773 5.49982 8.55125 5.3063 8.84153 5.3063H18.5176C18.8079 5.3063 19.0014 5.49982 19.0014 5.79011C19.0014 6.08039 18.7595 6.27391 18.5176 6.27391Z" fill="#5B5A5E"/>
</svg>
