<svg xmlns="http://www.w3.org/2000/svg" width="10.883" height="20.129" viewBox="0 0 10.883 20.129"><g transform="translate(-28.374 -10)"><path d="M31.409,21.365h-2.5c-.394,0-.534-.142-.534-.538q0-1.526,0-3.052c0-.391.149-.54.537-.54h2.5c0-.07,0-1.538,0-2.215a5.523,5.523,0,0,1,.687-2.834,4.172,4.172,0,0,1,2.247-1.867A5.555,5.555,0,0,1,36.269,10q1.237,0,2.475,0c.355,0,.512.157.513.514q0,1.435,0,2.871c0,.361-.151.506-.514.51-.676.007-1.353,0-2.028.03a.919.919,0,0,0-1.041,1.039c-.016.747-.007,1.494-.007,2.268h2.913c.412,0,.553.142.553.556q0,1.518,0,3.036c0,.408-.133.539-.547.539H35.658v8.189c0,.437-.137.576-.568.576H31.939c-.381,0-.529-.148-.529-.529C31.409,26.934,31.409,21.458,31.409,21.365Z" fill="#3d6ad6"/></g></svg>