<svg xmlns="http://www.w3.org/2000/svg" width="14.601" height="11.687" viewBox="0 0 14.601 11.687">
  <g id="Icon_ionic-ios-bed" data-name="Icon ionic-ios-bed" transform="translate(0.5 0.5)">
    <path id="Path_30743" data-name="Path 30743" d="M15.189,14.625h-.012a.663.663,0,0,0-.662.662.067.067,0,0,1-.067.067H3.653a.067.067,0,0,1-.067-.067.663.663,0,0,0-.662-.662H2.912a.663.663,0,0,0-.662.662v5.477a.663.663,0,0,0,.662.662h.012a.663.663,0,0,0,.662-.662v-.188a.122.122,0,0,1,.121-.121H14.394a.122.122,0,0,1,.121.121v.188a.663.663,0,0,0,.662.662h.012a.663.663,0,0,0,.662-.662V15.287A.663.663,0,0,0,15.189,14.625Z" transform="translate(-2.25 -10.739)" fill="none" stroke="#000" stroke-width="1"/>
    <path id="Path_30744" data-name="Path 30744" d="M5.587,9.693H6.27a.122.122,0,0,0,.121-.121V9.177a.487.487,0,0,1,.486-.486h2.96a.487.487,0,0,1,.486.486v.395a.122.122,0,0,0,.121.121h.729a.122.122,0,0,0,.121-.121V9.177a.487.487,0,0,1,.486-.486h2.96a.487.487,0,0,1,.486.486v.395a.122.122,0,0,0,.121.121h.683a.244.244,0,0,0,.243-.243V6.6a.974.974,0,0,0-.972-.972H6.315a.974.974,0,0,0-.972.972V9.45A.244.244,0,0,0,5.587,9.693Z" transform="translate(-4.008 -5.625)" fill="none" stroke="#000" stroke-width="1"/>
  </g>
</svg>
