<svg xmlns="http://www.w3.org/2000/svg" width="14.2" height="12.55" viewBox="0 0 14.2 12.55">
  <path id="Icon_awesome-bath" data-name="Icon awesome-bath" d="M12.581,8.025H2.063V4.313a.825.825,0,0,1,1.522-.441A1.752,1.752,0,0,0,3.76,6.012a.309.309,0,0,0,.013.424l.292.292a.309.309,0,0,0,.438,0l2.45-2.45a.309.309,0,0,0,0-.438l-.292-.292a.309.309,0,0,0-.424-.013,1.749,1.749,0,0,0-1.655-.4A2.062,2.062,0,0,0,.825,4.313V8.025H.619A.619.619,0,0,0,0,8.644v.413a.619.619,0,0,0,.619.619H.825V10.5a2.469,2.469,0,0,0,.825,1.845v.837a.619.619,0,0,0,.619.619h.413a.619.619,0,0,0,.619-.619v-.206H9.9v.206a.619.619,0,0,0,.619.619h.413a.619.619,0,0,0,.619-.619v-.837a2.469,2.469,0,0,0,.825-1.845V9.675h.206a.619.619,0,0,0,.619-.619V8.644A.619.619,0,0,0,12.581,8.025Z" transform="translate(0.5 -1.75)" fill="none" stroke="#000" stroke-width="1"/>
</svg>
