<svg xmlns="http://www.w3.org/2000/svg" width="11.187" height="11.187" viewBox="0 0 11.187 11.187">
  <g id="Component_12_1" data-name="Component 12 – 1" transform="translate(0.25 0.25)">
    <path id="Path_33001" data-name="Path 33001" d="M12.076,12.687H2.611A.611.611,0,0,1,2,12.076V2.611A.611.611,0,0,1,2.611,2h9.465a.611.611,0,0,1,.611.611V5.139a.153.153,0,1,1-.305,0V2.611a.305.305,0,0,0-.305-.305H2.611a.305.305,0,0,0-.305.305v9.465a.305.305,0,0,0,.305.305h9.465a.305.305,0,0,0,.305-.305V9.242a.153.153,0,1,1,.305,0v2.833A.611.611,0,0,1,12.076,12.687Z" transform="translate(-2 -2)" fill="#002c6a" stroke="#000" stroke-width="0.5"/>
    <path id="Path_33002" data-name="Path 33002" d="M70.153,29.31A.153.153,0,0,1,70,29.157v-.444a.153.153,0,1,1,.305,0v.444A.153.153,0,0,1,70.153,29.31Z" transform="translate(-59.618 -25.186)" stroke="#000" stroke-width="0.5"/>
    <path id="Path_33003" data-name="Path 33003" d="M40.553,16.992a.153.153,0,0,1-.108-.261l2.687-2.687a.153.153,0,1,1,.216.216l-2.687,2.687A.153.153,0,0,1,40.553,16.992Z" transform="translate(-34.537 -12.848)" stroke="#000" stroke-width="0.5"/>
    <path id="Path_33004" data-name="Path 33004" d="M50.3,15.719a.153.153,0,0,1-.153-.153V14.305H48.89a.153.153,0,0,1,0-.305H50.3a.153.153,0,0,1,.153.153v1.414A.153.153,0,0,1,50.3,15.719Z" transform="translate(-41.602 -12.848)" stroke="#000" stroke-width="0.5"/>
  </g>
</svg>
