<svg xmlns="http://www.w3.org/2000/svg" width="16.75" height="13.375" viewBox="0 0 16.75 13.375"><g transform="translate(0.5 0.5)"><path d="M17.234,14.625H17.22a.768.768,0,0,0-.766.766.078.078,0,0,1-.077.077H3.874a.078.078,0,0,1-.077-.077.768.768,0,0,0-.766-.766H3.016a.768.768,0,0,0-.766.766v6.342a.768.768,0,0,0,.766.766H3.03a.768.768,0,0,0,.766-.766v-.218a.141.141,0,0,1,.141-.141H16.313a.141.141,0,0,1,.141.141v.218a.768.768,0,0,0,.766.766h.014A.768.768,0,0,0,18,21.734V15.391A.768.768,0,0,0,17.234,14.625Z" transform="translate(-2.25 -10.125)" fill="none" stroke="#002c6a" stroke-width="1"/><path d="M5.625,10.336h.791a.141.141,0,0,0,.141-.141V9.738a.564.564,0,0,1,.563-.562h3.428a.564.564,0,0,1,.563.563V10.2a.141.141,0,0,0,.141.141h.844a.141.141,0,0,0,.141-.141V9.738a.564.564,0,0,1,.563-.562h3.428a.564.564,0,0,1,.563.563V10.2a.141.141,0,0,0,.141.141h.791A.282.282,0,0,0,18,10.055V6.75a1.128,1.128,0,0,0-1.125-1.125H6.469A1.128,1.128,0,0,0,5.344,6.75v3.3A.282.282,0,0,0,5.625,10.336Z" transform="translate(-3.797 -5.625)" fill="none" stroke="#002c6a" stroke-width="1"/></g></svg>