<svg xmlns="http://www.w3.org/2000/svg" width="13.323" height="13.323" viewBox="0 0 13.323 13.323"><path d="M5.692,13.293a.284.284,0,0,1-.014.4l-.613.574a.282.282,0,0,1-.4-.014L1.093,10.4a.284.284,0,0,1,.014-.4l.614-.573a.282.282,0,0,1,.4.014ZM10.25,6.049a.284.284,0,0,1-.014.4L6.375,10.056a.282.282,0,0,1-.4-.014l-.922-.994a.284.284,0,0,1,.014-.4L8.929,5.04a.282.282,0,0,1,.4.014l.923.994ZM7.005,12.066a.285.285,0,0,1-.014.4l-.614.573a.282.282,0,0,1-.4-.014L2.408,9.174a.284.284,0,0,1,.014-.4L3.035,8.2a.282.282,0,0,1,.4.014Zm5.949-5.879a.284.284,0,0,1-.015.4l-.614.573a.282.282,0,0,1-.4-.014L8.356,3.3a.284.284,0,0,1,.014-.4l.616-.575a.282.282,0,0,1,.4.014l3.571,3.85Zm1.312-1.226a.285.285,0,0,1-.014.4l-.613.573a.282.282,0,0,1-.4-.014L9.67,2.069a.285.285,0,0,1,.014-.4L10.3,1.1a.281.281,0,0,1,.4.014Z" transform="translate(-1.018 -1.019)" fill="#022d6a"/></svg>