<svg width="31" height="32" viewBox="0 0 31 32" fill="none" xmlns="http://www.w3.org/2000/svg">
<path d="M24.6781 6.28735H22.9136C22.4259 6.28735 22.0312 6.68195 22.0312 7.16966C22.0312 7.6573 22.4259 8.05196 22.9136 8.05196H24.6781C25.1657 8.05196 25.5604 7.65736 25.5604 7.16966C25.5603 6.68195 25.1657 6.28735 24.6781 6.28735Z" fill="#5B5A5E"/>
<path d="M15.7611 3.24605L14.8789 1.4815C14.6592 1.04551 14.131 0.870636 13.695 1.0869C13.2591 1.30486 13.0824 1.83477 13.3004 2.27076L14.1827 4.03531C14.4004 4.46953 14.9277 4.64793 15.3666 4.42991C15.8025 4.21195 15.9791 3.68203 15.7611 3.24605Z" fill="#5B5A5E"/>
<path d="M21.5404 1.08689C21.1061 0.870626 20.5746 1.04556 20.3565 1.48149L19.4742 3.24604C19.2563 3.68202 19.4329 4.21188 19.8688 4.4299C20.309 4.64851 20.8357 4.46806 21.0527 4.0353L21.935 2.27075C22.153 1.83476 21.9763 1.30485 21.5404 1.08689Z" fill="#5B5A5E"/>
<path d="M12.3246 6.28748H10.56C10.0724 6.28748 9.67773 6.68208 9.67773 7.16978C9.67773 7.65742 10.0723 8.05208 10.56 8.05208H12.3246C12.8122 8.05208 13.2069 7.65748 13.2069 7.16978C13.2069 6.68208 12.8122 6.28748 12.3246 6.28748Z" fill="#5B5A5E"/>
<path d="M7.03256 15.1691H3.5034C3.01616 15.1691 2.62109 15.5641 2.62109 16.0514V30.1678C2.62109 30.655 3.01611 31.0501 3.5034 31.0501H7.0325C7.51973 31.0501 7.9148 30.6551 7.9148 30.1678V16.0513C7.9148 15.5641 7.51985 15.1691 7.03256 15.1691Z" fill="#5B5A5E"/>
<path d="M29.0703 17.5078C28.9147 16.1392 27.6362 15.1691 26.2587 15.1691H19.3802C19.9648 14.1224 20.2785 11.1618 20.2646 9.95243C20.2416 7.95055 18.5837 6.34631 16.5818 6.34631H15.8537C15.3661 6.34631 14.9714 6.74091 14.9714 7.22862C14.9714 9.26884 14.177 12.9514 12.6787 14.4497C11.6703 15.4582 10.8082 15.8236 9.67773 16.3886V29.6271C11.4085 30.204 13.606 31.0502 16.9554 31.0502H22.7268C24.6285 31.0502 26.1095 29.2889 25.3727 27.428C26.4953 27.1222 27.3233 26.0926 27.3233 24.8742C27.3233 24.5304 27.257 24.2013 27.1372 23.8989C29.0291 23.3834 29.7255 21.0473 28.4124 19.5805C28.8948 19.0416 29.1609 18.3044 29.0703 17.5078Z" fill="#5B5A5E"/>
</svg>
