<svg xmlns="http://www.w3.org/2000/svg" width="14.543" height="10" viewBox="0 0 14.543 10"><g transform="translate(-0.001 -80)"><g transform="translate(2.732 80)"><g transform="translate(0 0)"><path d="M106.175,80H97.089a.909.909,0,0,0,0,1.817h9.086a.909.909,0,0,0,0-1.817Z" transform="translate(-96.18 -80)" fill="#002c6a"/></g></g><g transform="translate(0.001 80.004)"><g transform="translate(0 0)"><path d="M1.823,81.04a.909.909,0,0,0-1.817,0,.774.774,0,0,0,0,.177.819.819,0,0,0,.05.173,1.055,1.055,0,0,0,.086.154.831.831,0,0,0,.114.141.8.8,0,0,0,.136.109.74.74,0,0,0,.154.086.75.75,0,0,0,.191.068.8.8,0,0,0,.177,0,.909.909,0,0,0,.641-.264.831.831,0,0,0,.114-.141,1.055,1.055,0,0,0,.086-.154.844.844,0,0,0,.068-.173A.774.774,0,0,0,1.823,81.04Z" transform="translate(-0.001 -80.135)" fill="#002c6a"/></g></g><g transform="translate(0.006 84.093)"><g transform="translate(0 0)"><path d="M2,225.04a.777.777,0,0,0,0-.177.736.736,0,0,0-.068-.168.908.908,0,0,0-.086-.159.654.654,0,0,0-.114-.136.909.909,0,0,0-1.549.641.906.906,0,0,0,.15.5.873.873,0,0,0,.118.136.664.664,0,0,0,.136.114.737.737,0,0,0,.154.086.774.774,0,0,0,.173.05.754.754,0,0,0,.177.018.773.773,0,0,0,.177,0,.738.738,0,0,0,.168-.05.759.759,0,0,0,.159-.086.663.663,0,0,0,.136-.114.663.663,0,0,0,.114-.136.731.731,0,0,0,.086-.154A.769.769,0,0,0,2,225.217.752.752,0,0,0,2,225.04Z" transform="translate(-0.18 -224.135)" fill="#002c6a"/></g></g><g transform="translate(0.006 88.181)"><path d="M2,369.04a.78.78,0,0,0,0-.177.773.773,0,0,0-.068-.173,1.055,1.055,0,0,0-.086-.154.663.663,0,0,0-.114-.136.909.909,0,0,0-1.281,0,.663.663,0,0,0-.114.136,1.055,1.055,0,0,0-.086.154.745.745,0,0,0-.05.173.781.781,0,0,0-.018.177.909.909,0,0,0,.268.641.663.663,0,0,0,.136.114.737.737,0,0,0,.154.086.773.773,0,0,0,.173.05.754.754,0,0,0,.177.018.775.775,0,0,0,.177,0,.738.738,0,0,0,.168-.05.759.759,0,0,0,.159-.086.664.664,0,0,0,.136-.114.663.663,0,0,0,.114-.136.728.728,0,0,0,.086-.154A.772.772,0,0,0,2,369.217.752.752,0,0,0,2,369.04Z" transform="translate(-0.178 -368.135)" fill="#002c6a"/></g><g transform="translate(2.732 84.089)"><g transform="translate(0 0)"><path d="M107.084,224H97.089a.909.909,0,0,0,0,1.817h9.995a.909.909,0,0,0,0-1.817Z" transform="translate(-96.18 -224)" fill="#002c6a"/></g></g><g transform="translate(2.732 88.178)"><g transform="translate(0 0)"><path d="M102.995,368H97.089a.909.909,0,0,0,0,1.817h5.906a.909.909,0,1,0,0-1.817Z" transform="translate(-96.18 -368)" fill="#002c6a"/></g></g></g></svg>