<svg width="31" height="31" viewBox="0 0 31 31" fill="none" xmlns="http://www.w3.org/2000/svg">
<path fill-rule="evenodd" clip-rule="evenodd" d="M18.0059 13.1153H8.81212C8.27743 13.1153 7.84436 12.6823 7.84436 12.1476C7.84436 11.6129 8.27743 11.1798 8.81212 11.1798H18.0059C18.5406 11.1798 18.9736 11.6129 18.9736 12.1476C18.9736 12.6822 18.5406 13.1153 18.0059 13.1153ZM18.0059 16.9859H8.81212C8.27743 16.9859 7.84436 16.5529 7.84436 16.0182C7.84436 15.4835 8.27743 15.0504 8.81212 15.0504H18.0059C18.5406 15.0504 18.9736 15.4835 18.9736 16.0182C18.9736 16.5529 18.5406 16.9859 18.0059 16.9859ZM18.0059 20.8566H8.81212C8.27743 20.8566 7.84436 20.4235 7.84436 19.8888C7.84436 19.3541 8.27743 18.921 8.81212 18.921H18.0059C18.5406 18.921 18.9736 19.3541 18.9736 19.8888C18.9736 20.4235 18.5406 20.8566 18.0059 20.8566ZM21.8517 4.88843H4.62433C3.99891 4.88843 3.49023 5.3971 3.49023 6.02252V28.9161C3.49023 29.5416 3.99892 30.0503 4.62433 30.0503H21.8517C22.4765 30.0503 22.9852 29.5416 22.9852 28.9161V6.02252C22.9852 5.3971 22.4765 4.88843 21.8517 4.88843Z" fill="#5B5A5E"/>
<path fill-rule="evenodd" clip-rule="evenodd" d="M28.1655 2.95394V24.2482C28.1655 25.7098 26.99 27.152 24.9193 27.152V6.02407C24.9193 4.3308 23.5432 2.95394 21.8514 2.95394H6.74334C6.74334 1.35263 8.12246 0.0501709 9.81722 0.0501709H25.0916C26.7863 0.0501709 28.1655 1.35263 28.1655 2.95394Z" fill="#5B5A5E"/>
</svg>
