<svg xmlns="http://www.w3.org/2000/svg" width="34" height="34" viewBox="0 0 34 34"><g transform="translate(-336.842 -382.842)"><rect width="34" height="34" transform="translate(336.842 382.842)" fill="none"/><g transform="translate(337 383.345)"><g transform="translate(0.493 0.493)"><path d="M370.371,400.148c0,1.221-.916,2.322-1.175,3.464-.268,1.179.073,2.567-.44,3.631-.522,1.081-1.825,1.678-2.567,2.607s-1.039,2.336-1.973,3.081-2.36.719-3.441,1.24c-1.064.513-1.935,1.652-3.114,1.92-1.142.26-2.418-.382-3.639-.382s-2.5.642-3.639.382c-1.179-.268-2.05-1.406-3.114-1.92-1.081-.522-2.512-.5-3.441-1.24s-1.227-2.147-1.973-3.081-2.045-1.525-2.567-2.607c-.513-1.064-.172-2.452-.44-3.631-.26-1.142-1.175-2.243-1.175-3.464s.916-2.322,1.175-3.464c.268-1.179-.073-2.567.44-3.631.522-1.081,1.825-1.678,2.567-2.607s1.039-2.336,1.973-3.081,2.36-.719,3.441-1.24c1.064-.513,1.935-1.652,3.114-1.92,1.142-.26,2.418.382,3.639.382s2.5-.642,3.639-.382c1.179.268,2.05,1.406,3.114,1.92,1.081.522,2.512.5,3.441,1.24s1.227,2.147,1.973,3.081,2.045,1.525,2.567,2.607c.513,1.064.172,2.452.44,3.631C369.456,397.826,370.371,398.928,370.371,400.148Z" transform="translate(-337.673 -384.144)" fill="#c1e9af" fill-rule="evenodd"/><path d="M348.2,424.231c.093.045.185.095.275.149a7.31,7.31,0,0,1-2.061-.688,9.36,9.36,0,0,1,1.786.539Z" transform="translate(-340.014 -394.732)" fill="#c1e9af" fill-rule="evenodd"/><path d="M374.634,401.07c0,1.22-.915,2.322-1.175,3.464-.268,1.179.073,2.568-.441,3.632-.521,1.081-1.825,1.678-2.566,2.606s-1.04,2.336-1.973,3.081-2.36.719-3.442,1.241c-1.064.513-1.935,1.651-3.114,1.92-1.142.26-2.418-.382-3.639-.382s-2.5.642-3.639.382a3.287,3.287,0,0,1-1.053-.476c1.047.082,3.6-1.117,4.692-1.117,1.22,0,2.251.6,3.393.336,1.179-.268,1.685-1.442,2.749-1.955,1.082-.522,2.082-.1,3.011-.84s.857-1.784,1.6-2.717,2.045-1.525,2.566-2.607c.514-1.064.173-2.452.441-3.631.26-1.142,1.121-1.715,1.121-2.936s-.876-2.2-1.136-3.338c-.268-1.18.208-2.286-.305-3.35-.522-1.082-1.85-1.863-2.591-2.792s-1.136-3.086-2.069-3.832a2.335,2.335,0,0,0-.247-.172,4.243,4.243,0,0,1,1.657.7c.933.745,1.227,2.147,1.973,3.081s2.045,1.525,2.567,2.606c.513,1.064.172,2.453.44,3.632.259,1.142,1.175,2.244,1.175,3.464Z" transform="translate(-341.935 -385.065)" fill="#ade194" fill-rule="evenodd"/><path d="M350.364,425.012a21.027,21.027,0,0,1,2.06,1.444,2.63,2.63,0,0,1-.356-.053c-1.076-.244-1.9-1.214-2.838-1.771A5.914,5.914,0,0,1,350.364,425.012Z" transform="translate(-340.767 -394.984)" fill="#c1e9af" fill-rule="evenodd"/><circle cx="10.611" cy="10.611" r="10.611" transform="translate(5.738 5.393)" fill="#e6f6df"/><path d="M368.437,402.534a10.613,10.613,0,0,1-16.559,8.79A10.613,10.613,0,0,0,362.6,393.054a10.612,10.612,0,0,1,5.838,9.48Z" transform="translate(-341.476 -386.529)" fill="#dbf1d0" fill-rule="evenodd"/><g transform="translate(15.856 2.136)"><path d="M359.82,388.89a.493.493,0,0,1-.493-.493v-.843a.493.493,0,0,1,.986,0v.843A.493.493,0,0,1,359.82,388.89Z" transform="translate(-359.327 -387.061)" fill-rule="evenodd"/><path d="M359.82,424.271a.493.493,0,0,1-.493-.493v-.843a.493.493,0,0,1,.986,0v.843A.493.493,0,0,1,359.82,424.271Z" transform="translate(-359.327 -396.534)" fill-rule="evenodd"/></g><g transform="translate(11.282 2.943)"><path d="M353.861,389.941a.493.493,0,0,1-.463-.324l-.288-.792a.493.493,0,0,1,.926-.337l.288.793a.493.493,0,0,1-.463.662Z" transform="translate(-353.08 -388.162)" fill-rule="evenodd"/><path d="M365.962,423.188a.493.493,0,0,1-.463-.324l-.288-.792a.493.493,0,0,1,.926-.337l.288.792a.493.493,0,0,1-.463.662Z" transform="translate(-356.32 -397.064)" fill-rule="evenodd"/></g><g transform="translate(7.258 5.265)"><path d="M348.62,392.965a.492.492,0,0,1-.378-.176l-.542-.646a.493.493,0,1,1,.755-.634l.542.646a.493.493,0,0,1-.377.81Z" transform="translate(-347.585 -391.334)" fill-rule="evenodd"/><path d="M371.363,420.069a.492.492,0,0,1-.378-.176l-.542-.646a.493.493,0,1,1,.755-.634l.542.646a.493.493,0,0,1-.377.81Z" transform="translate(-353.674 -398.59)" fill-rule="evenodd"/></g><g transform="translate(4.273 8.824)"><path d="M344.731,397.6a.491.491,0,0,1-.246-.066l-.73-.422a.493.493,0,1,1,.493-.854l.73.422a.493.493,0,0,1-.247.92Z" transform="translate(-343.508 -396.194)" fill-rule="evenodd"/><path d="M375.372,415.291a.491.491,0,0,1-.246-.066l-.73-.422a.493.493,0,0,1,.493-.854l.73.422a.493.493,0,0,1-.247.92Z" transform="translate(-351.712 -400.93)" fill-rule="evenodd"/></g><g transform="translate(2.683 13.189)"><path d="M342.662,403.287a.491.491,0,0,1-.086-.008l-.831-.146a.493.493,0,1,1,.171-.971l.831.146a.493.493,0,0,1-.085.978Z" transform="translate(-341.338 -402.155)" fill-rule="evenodd"/><path d="M377.506,409.431a.494.494,0,0,1-.086-.008l-.831-.146a.493.493,0,1,1,.171-.971l.831.146a.493.493,0,0,1-.085.978Z" transform="translate(-350.667 -403.8)" fill-rule="evenodd"/></g><g transform="translate(2.683 13.189)"><path d="M341.83,409.431a.493.493,0,0,1-.085-.978l.831-.146a.493.493,0,1,1,.171.971l-.831.146a.488.488,0,0,1-.086.008Z" transform="translate(-341.338 -403.8)" fill-rule="evenodd"/><path d="M376.674,403.287a.493.493,0,0,1-.085-.978l.831-.146a.493.493,0,1,1,.171.971l-.831.146A.492.492,0,0,1,376.674,403.287Z" transform="translate(-350.667 -402.155)" fill-rule="evenodd"/></g><g transform="translate(4.272 8.824)"><path d="M344,415.291a.493.493,0,0,1-.247-.92l.73-.422a.493.493,0,0,1,.493.854l-.73.422A.491.491,0,0,1,344,415.291Z" transform="translate(-343.507 -400.93)" fill-rule="evenodd"/><path d="M374.642,397.6a.493.493,0,0,1-.247-.92l.73-.422a.493.493,0,1,1,.493.854l-.73.422A.49.49,0,0,1,374.642,397.6Z" transform="translate(-351.711 -396.194)" fill-rule="evenodd"/></g><g transform="translate(7.258 5.265)"><path d="M348.078,420.069a.493.493,0,0,1-.377-.81l.542-.646a.493.493,0,1,1,.755.634l-.542.646A.492.492,0,0,1,348.078,420.069Z" transform="translate(-347.585 -398.59)" fill-rule="evenodd"/><path d="M370.821,392.965a.493.493,0,0,1-.377-.81l.542-.646a.493.493,0,1,1,.755.634l-.542.646A.492.492,0,0,1,370.821,392.965Z" transform="translate(-353.674 -391.333)" fill-rule="evenodd"/></g><g transform="translate(11.281 2.943)"><path d="M353.572,423.188a.493.493,0,0,1-.463-.662l.288-.792a.493.493,0,0,1,.926.337l-.288.792a.493.493,0,0,1-.463.324Z" transform="translate(-353.079 -397.064)" fill-rule="evenodd"/><path d="M365.673,389.941a.493.493,0,0,1-.463-.662l.288-.793a.493.493,0,0,1,.926.337l-.288.792A.493.493,0,0,1,365.673,389.941Z" transform="translate(-356.319 -388.162)" fill-rule="evenodd"/></g><path d="M358.079,402.158a1.254,1.254,0,0,1-.9-.379l-1.438-1.475a1.254,1.254,0,0,1,1.8-1.75l.491.5,1.916-2.185a1.254,1.254,0,1,1,1.885,1.653l-2.81,3.2a1.253,1.253,0,0,1-.909.427h-.033Z" transform="translate(-342.416 -387.438)" fill="#97da7b" fill-rule="evenodd"/><path d="M362.4,398.527l-2.81,3.2a1.253,1.253,0,0,1-.91.427h-.033a1.252,1.252,0,0,1-.9-.379l-.248-.254c.033,0,.066,0,.1,0h.033a1.252,1.252,0,0,0,.91-.427l2.81-3.2a1.254,1.254,0,0,0,.145-1.451,1.254,1.254,0,0,1,.9,2.08Z" transform="translate(-342.981 -387.438)" fill="#80d261" fill-rule="evenodd"/></g><path d="M370,397.69a6.687,6.687,0,0,1-.507-1.295,6.988,6.988,0,0,1-.111-1.439,4.071,4.071,0,0,0-1.953-4.034,4.805,4.805,0,0,1-1.754-2.2,4.079,4.079,0,0,0-3.5-2.8,6.916,6.916,0,0,1-1.368-.427,6.771,6.771,0,0,1-1.16-.79,4.065,4.065,0,0,0-4.361-1.01,5,5,0,0,1-2.893,0,4.065,4.065,0,0,0-4.361,1.01,6.765,6.765,0,0,1-1.16.79,6.919,6.919,0,0,1-1.368.427,4.078,4.078,0,0,0-3.5,2.8,4.8,4.8,0,0,1-1.754,2.2,4.071,4.071,0,0,0-1.953,4.034,6.987,6.987,0,0,1-.111,1.439,6.683,6.683,0,0,1-.507,1.295,4.155,4.155,0,0,0,0,4.556,6.685,6.685,0,0,1,.507,1.295,6.987,6.987,0,0,1,.111,1.439,4.071,4.071,0,0,0,1.953,4.034,6.821,6.821,0,0,1,1.038.964l.036.046a.493.493,0,1,0,.781-.6l-.047-.06a7.633,7.633,0,0,0-1.187-1.114,3.157,3.157,0,0,1-1.589-3.28,7.82,7.82,0,0,0-.136-1.646,7.5,7.5,0,0,0-.576-1.5,3.239,3.239,0,0,1,0-3.718,7.5,7.5,0,0,0,.576-1.5,7.817,7.817,0,0,0,.136-1.646,3.157,3.157,0,0,1,1.589-3.28,5.721,5.721,0,0,0,2.016-2.526,3.165,3.165,0,0,1,2.848-2.276,7.747,7.747,0,0,0,1.566-.5,7.593,7.593,0,0,0,1.339-.9,3.152,3.152,0,0,1,3.545-.822,5.923,5.923,0,0,0,3.309,0,3.152,3.152,0,0,1,3.545.823,7.593,7.593,0,0,0,1.339.9,7.74,7.74,0,0,0,1.566.5,3.165,3.165,0,0,1,2.848,2.276,5.722,5.722,0,0,0,2.016,2.526,3.157,3.157,0,0,1,1.589,3.28,7.817,7.817,0,0,0,.136,1.646,7.5,7.5,0,0,0,.576,1.5,3.239,3.239,0,0,1,0,3.718,7.5,7.5,0,0,0-.576,1.5,7.822,7.822,0,0,0-.136,1.646,3.157,3.157,0,0,1-1.589,3.28,5.721,5.721,0,0,0-2.016,2.526,3.165,3.165,0,0,1-2.848,2.276,7.751,7.751,0,0,0-1.566.5,7.592,7.592,0,0,0-1.339.9,3.152,3.152,0,0,1-3.545.823,5.924,5.924,0,0,0-3.309,0,3.152,3.152,0,0,1-3.545-.823,7.59,7.59,0,0,0-1.339-.9,7.754,7.754,0,0,0-1.566-.5,4.569,4.569,0,0,1-1.782-.684,2.948,2.948,0,0,1-.689-.866.493.493,0,1,0-.855.49,3.883,3.883,0,0,0,.929,1.146,5.347,5.347,0,0,0,2.166.872,6.92,6.92,0,0,1,1.368.427,6.771,6.771,0,0,1,1.16.79,4.065,4.065,0,0,0,4.361,1.01,5,5,0,0,1,2.892,0,7.677,7.677,0,0,0,1.606.231,3.127,3.127,0,0,0,.7-.074,5.356,5.356,0,0,0,2.059-1.166,6.771,6.771,0,0,1,1.16-.79,6.921,6.921,0,0,1,1.368-.427,4.079,4.079,0,0,0,3.5-2.8,4.8,4.8,0,0,1,1.754-2.2,4.071,4.071,0,0,0,1.953-4.034,6.986,6.986,0,0,1,.111-1.439,6.685,6.685,0,0,1,.507-1.295,4.155,4.155,0,0,0,0-4.557Z" transform="translate(-337 -383.471)" fill-rule="evenodd"/><path d="M365.558,397.424a.493.493,0,0,0,.205-.666,11.05,11.05,0,1,0,.884,2.23.493.493,0,0,0-.95.261,10.121,10.121,0,1,1-.805-2.031.493.493,0,0,0,.666.205Z" transform="translate(-339.098 -385.443)" fill-rule="evenodd"/><path d="M359.4,396.369a1.746,1.746,0,1,1,2.626,2.3l-2.81,3.2a1.751,1.751,0,0,1-1.267.594H357.9a1.756,1.756,0,0,1-1.251-.527l-1.438-1.475a1.746,1.746,0,1,1,2.5-2.438l.119.123Zm-.925,4.857,2.81-3.2a.761.761,0,0,0-1.144-1l-1.916,2.185a.493.493,0,0,1-.723.019l-.491-.5a.761.761,0,0,0-1.089,1.062l1.438,1.475a.765.765,0,0,0,.545.23h.021A.762.762,0,0,0,358.471,401.226Z" transform="translate(-341.743 -386.765)" fill-rule="evenodd"/><path d="M356.824,406.3a.584.584,0,0,1,.542.363l.005.013,1.53,4.053a.493.493,0,1,1-.922.348l-.261-.691h-1.8l-.263.692a.493.493,0,0,1-.921-.351l1.544-4.053,0-.011a.584.584,0,0,1,.542-.364Zm0,1.714-.529,1.388h1.052Z" transform="translate(-341.739 -389.583)" fill-rule="evenodd"/><path d="M362.023,406.795v4.111a.493.493,0,1,0,.986,0v-4.111a.493.493,0,1,0-.986,0Z" transform="translate(-343.7 -389.583)" fill-rule="evenodd"/><path d="M365.225,411.252a.505.505,0,0,1-.149-.357s-.005-1.482-.005-2.05c0-.466,0-2.038,0-2.038a.5.5,0,0,1,.5-.506h1.157c1.289,0,2.155,1.024,2.155,2.548a2.3,2.3,0,0,1-2.113,2.539c-.33.006-1.155.009-1.19.009h0A.5.5,0,0,1,365.225,411.252Zm2.65-2.4c0-.744-.3-1.538-1.145-1.538h-.652c0,.5,0,1.239,0,1.534,0,.353,0,1.057,0,1.54.244,0,.517,0,.671-.006C367.313,410.37,367.876,409.894,367.876,408.851Z" transform="translate(-344.515 -389.584)" fill-rule="evenodd"/><path d="M350.13,406.323a.5.5,0,0,1,.144-.021h1.145a1.653,1.653,0,1,1,0,3.306l-.652,0v1.3a.493.493,0,1,1-.986,0v-4.111a.5.5,0,0,1,.034-.181A.488.488,0,0,1,350.13,406.323Zm1.288,2.3a.668.668,0,1,0,0-1.334h-.65c0,.254,0,.537,0,.667,0,.154,0,.427,0,.67Z" transform="translate(-340.422 -389.583)" fill-rule="evenodd"/></g></g></svg>