<svg xmlns="http://www.w3.org/2000/svg" width="21.182" height="20.982" viewBox="0 0 21.182 20.982"><path d="M87.858,877.825v15.386H71.639V872.23H82.211Z" transform="translate(-66.676 -872.23)" fill="#ccf1ff" fill-rule="evenodd"/><path d="M100.377,877.825v15.386H92.226V872.23h2.5Z" transform="translate(-79.196 -872.23)" fill="#ade7ff" fill-rule="evenodd"/><path d="M104.263,877.825H98.616v-5.6Z" transform="translate(-83.081 -872.23)" fill="#80d6ff" fill-rule="evenodd"/><path d="M58.975,879.06H70.739v6.968H58.975Z" transform="translate(-58.975 -876.383)" fill="#f12b0f" fill-rule="evenodd"/><g transform="translate(2.283 5.002)"><path d="M65.957,886.8a.887.887,0,0,0,1.009-.934c0-.558-.369-.875-1.009-.875H64.8v2.444h.816V886.8h.341Zm-.042-1.2a.257.257,0,0,1,.278.286.262.262,0,0,1-.278.3h-.3v-.582Z" transform="translate(-64.8 -884.994)" fill="#fff" fill-rule="evenodd"/><path d="M72.115,887.439a1.222,1.222,0,0,0,1.372-1.224,1.2,1.2,0,0,0-1.34-1.22h-1.1v2.444Zm.014-1.817a.532.532,0,0,1,.524.6c0,.359-.19.589-.485.589h-.306v-1.189h.267Z" transform="translate(-68.598 -884.995)" fill="#fff" fill-rule="evenodd"/><path d="M79.93,884.995v.614H78.762v.422h1.094v.614H78.762v.795h-.816v-2.444Z" transform="translate(-72.794 -884.995)" fill="#fff" fill-rule="evenodd"/><path d="M79.668,909.7h9.888v1.231H79.668Z" transform="translate(-73.841 -900.018)" fill="#fff" fill-rule="evenodd"/><path d="M79.668,903.42h9.888v1.231H79.668Z" transform="translate(-73.841 -896.199)" fill="#fff" fill-rule="evenodd"/><path d="M79.668,915.98h9.888v1.23H79.668Z" transform="translate(-73.841 -903.837)" fill="#fff" fill-rule="evenodd"/></g><path d="M92.226,909.7h4.967v1.231H92.226Z" transform="translate(-79.196 -895.016)" fill="#f6f9fa" fill-rule="evenodd"/><path d="M92.226,903.42h4.967v1.231H92.226Z" transform="translate(-79.196 -891.197)" fill="#f6f9fa" fill-rule="evenodd"/><path d="M92.226,915.98h4.967v1.23H92.226Z" transform="translate(-79.196 -898.835)" fill="#f6f9fa" fill-rule="evenodd"/></svg>