<svg width="31" height="31" viewBox="0 0 31 31" fill="none" xmlns="http://www.w3.org/2000/svg">
<path d="M27.0386 3.06817V1.19006H13.289V3.07772H9.47656V10.2047C12.4314 11.3198 14.5388 14.1767 14.5388 17.517C14.5388 19.2816 13.3739 22.1748 10.9774 26.3616C10.6428 26.9462 10.3074 27.5141 9.98387 28.0502H19.2893V22.3003H21.1641V28.0502H30.7883V3.08088L27.0386 3.06817ZM19.1016 20.3492H15.5393V18.4743H19.1016V20.3492ZM19.1016 16.5993H15.5393V14.7244H19.1016V16.5993ZM19.1016 12.9356H15.5393V11.0608H19.1016V12.9356ZM19.1016 9.18559H15.5393V7.31077H19.1016V9.18559ZM24.9141 20.3492H21.3518V18.4743H24.9141V20.3492ZM24.9141 16.5993H21.3518V14.7244H24.9141V16.5993ZM24.9141 12.9356H21.3518V11.0608H24.9141V12.9356ZM24.9141 9.18559H21.3518V7.31077H24.9141V9.18559Z" fill="#5B5A5E"/>
<path d="M6.72662 15.642C5.69268 15.642 4.85156 16.4831 4.85156 17.517C4.85156 18.551 5.69268 19.3921 6.72662 19.3921C7.76057 19.3921 8.60168 18.551 8.60168 17.517C8.60168 16.4831 7.76057 15.642 6.72662 15.642Z" fill="#5B5A5E"/>
<path d="M6.72684 11.5793C3.45273 11.5793 0.789062 14.2431 0.789062 17.5171C0.789062 20.0548 4.55564 26.3854 6.72684 29.7306C8.89797 26.3848 12.6646 20.0532 12.6646 17.5171C12.6647 14.243 10.001 11.5793 6.72684 11.5793ZM6.72689 21.267C4.65918 21.267 2.97701 19.5848 2.97701 17.5171C2.97701 15.4494 4.65918 13.7672 6.72689 13.7672C8.79461 13.7672 10.4768 15.4494 10.4768 17.5171C10.4768 19.5848 8.79461 21.267 6.72689 21.267Z" fill="#5B5A5E"/>
</svg>
