<svg xmlns="http://www.w3.org/2000/svg" width="13.557" height="13.558" viewBox="0 0 13.557 13.558"><path d="M2.078,7.273a.516.516,0,1,0,0,1.032.516.516,0,0,0,0-1.032Zm7.2-4.31A1.123,1.123,0,1,0,8.149,1.843,1.123,1.123,0,0,0,9.277,2.964Zm4.838,10-1.829-2.154s-.571-3.325-.571-3.332L11.629,7.1S11.4,6.053,11.22,5.23l.557.319c.014.031.969,1.844.969,1.844a.577.577,0,0,0,.338.278.568.568,0,0,0,.437-.041.551.551,0,0,0,.278-.336.537.537,0,0,0-.038-.432L12.713,4.87a.7.7,0,0,0-.1-.127,1.439,1.439,0,0,0-.241-.168L10.34,3.42a1.241,1.241,0,0,0-.829-.113,1.2,1.2,0,0,0-.35.137,1.527,1.527,0,0,0-.726.813L7.39,6.355l-1.647.319L5.7,6.687,4.217,5.638c-.334-.233-.375-.933-.378-.96a1.73,1.73,0,0,0-.756-1.245A1.819,1.819,0,0,0,1.762,3.1a1.253,1.253,0,0,0-.822.5,1.206,1.206,0,0,0-.22.706l.021.227a1.8,1.8,0,0,0,.746,1.138A1.789,1.789,0,0,0,2.807,6l.1-.021c.01-.007.67-.21.994.01,0,0,1.112.785,1.408.994a.5.5,0,0,0-.082.264.571.571,0,0,0,.681.556l1.973-.384a1.13,1.13,0,0,0,.241-.1.631.631,0,0,0,.162-.2l.519-1.042s.358,1.683.364,1.714C9.129,7.829,7.551,9.5,7.551,9.5l-.061.034a.737.737,0,0,0-.275.521v3.538a.706.706,0,0,0,1.412,0V10.637a19.847,19.847,0,0,0,1.691-1.759c.035.2.354,1.993.354,1.993a.8.8,0,0,0,.221.418s2.174,2.562,2.174,2.562a.713.713,0,0,0,.468.24.7.7,0,0,0,.5-.16.688.688,0,0,0,.241-.522.675.675,0,0,0-.161-.442ZM3.268,5.251a.815.815,0,0,1-.536.319,1.331,1.331,0,0,1-.987-.257,1.343,1.343,0,0,1-.567-.847L1.163,4.3A.755.755,0,0,1,1.3,3.855a1.1,1.1,0,0,1,1.526-.062A1.1,1.1,0,0,1,3.268,5.251Z" transform="translate(-0.72 -0.717)" fill="#022d6a"/></svg>