<svg xmlns="http://www.w3.org/2000/svg" width="10.986" height="10.986" viewBox="0 0 10.986 10.986">
  <path id="Icon_awesome-parking" data-name="Icon awesome-parking" d="M8.916,2.25H1.07A1.07,1.07,0,0,0,0,3.32v7.846a1.07,1.07,0,0,0,1.07,1.07H8.916a1.07,1.07,0,0,0,1.07-1.07V3.32A1.07,1.07,0,0,0,8.916,2.25ZM5.349,8.669H4.28v1.07a.358.358,0,0,1-.357.357H3.21a.358.358,0,0,1-.357-.357V4.746A.358.358,0,0,1,3.21,4.39h2.14a2.14,2.14,0,1,1,0,4.28Zm0-2.853H4.28V7.243h1.07a.713.713,0,0,0,0-1.427Z" transform="translate(0.5 -1.75)" fill="none" stroke="#000" stroke-width="1"/>
</svg>
