<svg xmlns="http://www.w3.org/2000/svg" width="10.338" height="13.557" viewBox="0 0 10.338 13.557"><path d="M4.812,6.595H5.8v6.326H7.273V7.5H8.75v5.423h1.477V7.5H11.7v5.423h1.477V6.595h.984a.474.474,0,0,0,.493-.452.44.44,0,0,0-.205-.365h0l-.007,0-.013-.008-4.7-2.431V2.621c.868.4,1.582-.288,2.707.125V1.172c-1.126-.413-1.84.273-2.707-.125v-.1a.247.247,0,0,0-.492,0V3.333l-4.7,2.431-.013.008-.007,0h0a.44.44,0,0,0-.2.365.473.473,0,0,0,.492.452ZM5.3,13.373l-.984.9H14.658l-.985-.9Z" transform="translate(-4.32 -0.72)" fill="#022d6a"/></svg>