<svg xmlns="http://www.w3.org/2000/svg" width="16.286" height="14.375" viewBox="0 0 16.286 14.375"><path d="M14.569,8.938H2.388v-4.3A.955.955,0,0,1,4.15,4.127a2.029,2.029,0,0,0,.2,2.479.358.358,0,0,0,.015.49l.338.338a.358.358,0,0,0,.507,0L8.051,4.6a.358.358,0,0,0,0-.507l-.338-.338a.358.358,0,0,0-.49-.015A2.026,2.026,0,0,0,5.306,3.28,2.387,2.387,0,0,0,.955,4.638v4.3H.717A.717.717,0,0,0,0,9.654v.478a.717.717,0,0,0,.717.717H.955V11.8a2.859,2.859,0,0,0,.955,2.136v.969a.717.717,0,0,0,.717.717H3.1a.717.717,0,0,0,.717-.717V14.67h7.643v.239a.717.717,0,0,0,.717.717h.478a.717.717,0,0,0,.717-.717V13.94A2.859,2.859,0,0,0,14.33,11.8v-.955h.239a.717.717,0,0,0,.717-.717V9.654A.717.717,0,0,0,14.569,8.938Z" transform="translate(0.5 -1.75)" fill="none" stroke="#002c6a" stroke-width="1"/></svg>