<svg xmlns="http://www.w3.org/2000/svg" width="12.875" height="12.875" viewBox="0 0 12.875 12.875"><g transform="translate(0.25 0.25)"><path d="M70.177,39.349A.177.177,0,0,1,70,39.172v-.525a.177.177,0,1,1,.354,0v.525A.177.177,0,0,1,70.177,39.349Z" transform="translate(-57.979 -32.023)" fill="#002c6a" stroke="#002c6a" stroke-width="0.5"/><path d="M13.668,14.375H2.707A.707.707,0,0,1,2,13.668V2.707A.707.707,0,0,1,2.707,2H13.668a.707.707,0,0,1,.707.707V5.635a.177.177,0,0,1-.354,0V2.707a.354.354,0,0,0-.354-.354H2.707a.354.354,0,0,0-.354.354V13.668a.354.354,0,0,0,.354.354H13.668a.354.354,0,0,0,.354-.354V10.387a.177.177,0,0,1,.354,0v3.281A.707.707,0,0,1,13.668,14.375Z" transform="translate(-2 -2)" fill="#002c6a" stroke="#002c6a" stroke-width="0.5"/><path d="M70.177,29.428A.177.177,0,0,1,70,29.251v-.514a.177.177,0,0,1,.354,0v.514A.177.177,0,0,1,70.177,29.428Z" transform="translate(-57.979 -23.865)" fill="#002c6a" stroke="#002c6a" stroke-width="0.5"/><path d="M40.577,17.465a.177.177,0,0,1-.125-.3l3.111-3.111a.177.177,0,1,1,.25.25L40.7,17.413A.177.177,0,0,1,40.577,17.465Z" transform="translate(-33.611 -11.879)" fill="#002c6a" stroke="#002c6a" stroke-width="0.5"/><path d="M50.551,15.991a.177.177,0,0,1-.177-.177V14.354H48.914a.177.177,0,0,1,0-.354h1.638a.177.177,0,0,1,.177.177v1.638A.177.177,0,0,1,50.551,15.991Z" transform="translate(-40.475 -11.879)" fill="#002c6a" stroke="#002c6a" stroke-width="0.5"/><path d="M14.177,43.865a.177.177,0,0,1-.125-.3l3.111-3.111a.177.177,0,1,1,.25.25L14.3,43.813a.177.177,0,0,1-.125.052Z" transform="translate(-11.879 -33.611)" fill="#002c6a" stroke="#002c6a" stroke-width="0.5"/><path d="M15.814,50.728H14.177A.177.177,0,0,1,14,50.551V48.914a.177.177,0,0,1,.354,0v1.461h1.461a.177.177,0,1,1,0,.354Z" transform="translate(-11.879 -40.475)" fill="#002c6a" stroke="#002c6a" stroke-width="0.5"/></g></svg>