<svg xmlns="http://www.w3.org/2000/svg" xmlns:xlink="http://www.w3.org/1999/xlink" width="22.969" height="22.969" viewBox="0 0 22.969 22.969"><defs><linearGradient id="a" x1="0.5" y1="0.008" x2="0.5" y2="0.998" gradientUnits="objectBoundingBox"><stop offset="0" stop-color="#e09b3d"/><stop offset="0.3" stop-color="#c74c4d"/><stop offset="0.6" stop-color="#c21975"/><stop offset="1" stop-color="#7024c4"/></linearGradient><linearGradient id="b" y1="-0.451" y2="1.462" xlink:href="#a"/><linearGradient id="c" y1="-1.396" y2="6.586" xlink:href="#a"/></defs><path d="M16.126,0H6.843A6.85,6.85,0,0,0,0,6.843v9.284a6.85,6.85,0,0,0,6.843,6.843h9.284a6.85,6.85,0,0,0,6.843-6.843V6.843A6.85,6.85,0,0,0,16.126,0Zm4.532,16.126a4.532,4.532,0,0,1-4.532,4.532H6.843a4.532,4.532,0,0,1-4.532-4.532V6.843A4.532,4.532,0,0,1,6.843,2.311h9.284a4.532,4.532,0,0,1,4.532,4.532v9.284Z" fill="url(#a)"/><path d="M138.941,133a5.941,5.941,0,1,0,5.941,5.94A5.947,5.947,0,0,0,138.941,133Zm0,9.57a3.63,3.63,0,1,1,3.63-3.63A3.63,3.63,0,0,1,138.941,142.57Z" transform="translate(-127.456 -127.456)" fill="url(#b)"/><ellipse cx="1.423" cy="1.423" rx="1.423" ry="1.423" transform="translate(16.013 4.165)" fill="url(#c)"/></svg>