<svg xmlns="http://www.w3.org/2000/svg" width="6.469" height="7.923" viewBox="0 0 6.469 7.923"><g transform="translate(0.07 0.05)"><g transform="translate(0 0)"><path d="M213.352,232.6a3.168,3.168,0,0,1,2.964,4.273,2.491,2.491,0,0,1-.459.756l-2.3,2.7a.273.273,0,0,1-.416,0l-2.3-2.7a2.487,2.487,0,0,1-.459-.757,3.167,3.167,0,0,1,2.964-4.27Zm2.09,4.672a1.952,1.952,0,0,0,.361-.591,2.616,2.616,0,1,0-4.9,0,1.952,1.952,0,0,0,.362.592l2.091,2.455Z" transform="translate(-210.189 -232.6)" fill="#a3a8a8" fill-rule="evenodd"/><path d="M215.949,233.96a3.163,3.163,0,0,0-5.56,2.91,2.488,2.488,0,0,0,.459.757l2.3,2.7a.273.273,0,0,0,.416,0l2.3-2.7a2.491,2.491,0,0,0,.459-.756,3.16,3.16,0,0,0-.368-2.913h0Z" transform="translate(-210.189 -232.6)" fill="none" stroke="#a3a8a8" stroke-width="0.1" stroke-dasharray="0 0 0 0"/><path d="M215.89,236.768a1.952,1.952,0,0,1-.361.591h0l-2.091,2.455-2.091-2.455a1.953,1.953,0,0,1-.362-.592,2.616,2.616,0,1,1,4.9,0Z" transform="translate(-210.275 -232.687)" fill="none" stroke="#a3a8a8" stroke-width="0.1" stroke-dasharray="0 0 0 0"/></g><g transform="translate(1.632 1.623)"><path d="M212.079,236.011a1.532,1.532,0,1,1,1.532,1.532A1.532,1.532,0,0,1,212.079,236.011Zm.622.377a.984.984,0,1,0,.213-1.073A.984.984,0,0,0,212.7,236.388Z" transform="translate(-212.079 -234.479)" fill="#a3a8a8" fill-rule="evenodd"/><path d="M212.079,236.011a1.532,1.532,0,1,1,1.532,1.532A1.532,1.532,0,0,1,212.079,236.011Zm.622.377a.984.984,0,1,0,.213-1.073A.984.984,0,0,0,212.7,236.388Z" transform="translate(-212.079 -234.479)" fill="rgba(0,0,0,0)" stroke="#a3a8a8" stroke-width="0.1" stroke-dasharray="0 0 0 0" fill-rule="evenodd"/></g></g></svg>