<svg width="616" height="593" viewBox="0 0 616 593" fill="none" xmlns="http://www.w3.org/2000/svg">
<g clip-path="url(#clip0_4_420)">
<path opacity="0.2" d="M596.648 162.246H501.64C498.621 162.2 495.641 161.56 492.869 160.362C490.098 159.165 487.589 157.433 485.487 155.266C483.385 153.098 481.73 150.538 480.617 147.732C479.505 144.925 478.956 141.927 479.001 138.908C479.047 135.889 479.688 132.909 480.885 130.137C482.083 127.366 483.815 124.857 485.982 122.755C488.149 120.653 490.709 118.998 493.516 117.885C496.323 116.772 499.321 116.223 502.34 116.269H535.429C538.671 116.362 541.898 115.804 544.92 114.628C547.942 113.452 550.697 111.682 553.023 109.422C555.349 107.162 557.198 104.458 558.46 101.471C559.723 98.4841 560.373 95.2741 560.373 92.0312C560.373 88.7883 559.723 85.5784 558.46 82.5913C557.198 79.6043 555.349 76.9008 553.023 74.6409C550.697 72.381 547.942 70.6105 544.92 69.4343C541.898 68.2582 538.671 67.7001 535.429 67.7932H477.847C435.178 32.4392 382.381 11.5522 327.073 8.14523C325.902 8.14523 324.718 8.02023 323.541 7.94523H321.992C317.092 7.67623 312.203 7.49023 307.245 7.49023C261.45 7.49029 216.451 19.457 176.705 42.2045C136.96 64.9521 103.848 97.6907 80.6522 137.176C57.4561 176.661 44.9807 221.523 44.4622 267.315C43.9436 313.106 55.4 358.239 77.696 398.239H74.826C69.0575 398.239 63.5253 400.531 59.4464 404.61C55.3675 408.689 53.076 414.221 53.076 419.989C53.076 425.758 55.3675 431.29 59.4464 435.369C63.5253 439.448 69.0575 441.739 74.826 441.739H141.29C144.429 441.739 147.439 442.986 149.659 445.206C151.878 447.425 153.125 450.435 153.125 453.574C153.125 456.713 151.878 459.723 149.659 461.943C147.439 464.162 144.429 465.409 141.29 465.409H110.102C106.541 465.409 103.126 466.824 100.609 469.341C98.091 471.859 96.6765 475.274 96.6765 478.835C96.6765 482.395 98.091 485.81 100.609 488.328C103.126 490.846 106.541 492.26 110.102 492.26H166.567C203.974 516.037 246.813 529.909 291.057 532.572C297.48 533.027 303.945 533.337 310.472 533.337C351.003 533.336 390.985 523.964 427.294 505.953C463.603 487.942 495.256 461.78 519.78 429.51C544.304 397.241 561.035 359.738 568.666 319.932C576.296 280.126 574.62 239.094 563.767 200.043H596.649C601.662 200.043 606.469 198.052 610.013 194.508C613.558 190.963 615.549 186.156 615.549 181.143C615.549 176.131 613.558 171.323 610.013 167.779C606.469 164.234 601.662 162.243 596.649 162.243L596.648 162.246Z" fill="#D6D7E7"/>
<mask id="mask0_4_420" style="mask-type:luminance" maskUnits="userSpaceOnUse" x="0" y="335" width="613" height="258">
<path d="M306.5 592.605C475.775 592.605 613 535.074 613 464.105C613 393.137 475.775 335.605 306.5 335.605C137.225 335.605 0 393.137 0 464.105C0 535.074 137.225 592.605 306.5 592.605Z" fill="white"/>
</mask>
<g mask="url(#mask0_4_420)">
<g opacity="0.03">
<path opacity="0.78" d="M596.648 164.246H501.64C498.621 164.2 495.641 163.56 492.869 162.362C490.098 161.165 487.589 159.433 485.487 157.266C483.385 155.098 481.73 152.538 480.617 149.732C479.505 146.925 478.956 143.927 479.001 140.908C479.047 137.889 479.688 134.909 480.885 132.137C482.083 129.366 483.815 126.857 485.982 124.755C488.149 122.653 490.709 120.998 493.516 119.885C496.323 118.772 499.321 118.223 502.34 118.269H535.429C538.671 118.362 541.898 117.804 544.92 116.628C547.942 115.452 550.697 113.682 553.023 111.422C555.349 109.162 557.198 106.458 558.46 103.471C559.723 100.484 560.373 97.2741 560.373 94.0312C560.373 90.7883 559.723 87.5784 558.46 84.5913C557.198 81.6043 555.349 78.9008 553.023 76.6409C550.697 74.381 547.942 72.6105 544.92 71.4343C541.898 70.2582 538.671 69.7001 535.429 69.7932H477.847C435.178 34.4392 382.381 13.5522 327.073 10.1452C325.902 10.1452 324.718 10.0202 323.541 9.94523H321.992C317.092 9.67623 312.203 9.49023 307.245 9.49023C261.45 9.49029 216.451 21.457 176.705 44.2045C136.96 66.9521 103.848 99.6907 80.6522 139.176C57.4561 178.661 44.9807 223.523 44.4622 269.315C43.9436 315.106 55.4 360.239 77.696 400.239H74.826C69.0575 400.239 63.5253 402.531 59.4464 406.61C55.3675 410.689 53.076 416.221 53.076 421.989C53.076 427.758 55.3675 433.29 59.4464 437.369C63.5253 441.448 69.0575 443.739 74.826 443.739H141.29C144.429 443.739 147.439 444.986 149.659 447.206C151.878 449.425 153.125 452.435 153.125 455.574C153.125 458.713 151.878 461.723 149.659 463.943C147.439 466.162 144.429 467.409 141.29 467.409H110.102C106.541 467.409 103.126 468.824 100.609 471.341C98.091 473.859 96.6765 477.274 96.6765 480.835C96.6765 484.395 98.091 487.81 100.609 490.328C103.126 492.846 106.541 494.26 110.102 494.26H166.567C203.974 518.037 246.813 531.909 291.057 534.572C297.48 535.027 303.945 535.337 310.472 535.337C351.003 535.336 390.985 525.964 427.294 507.953C463.603 489.942 495.256 463.78 519.78 431.51C544.304 399.241 561.035 361.738 568.666 321.932C576.296 282.126 574.62 241.094 563.767 202.043H596.649C601.662 202.043 606.469 200.052 610.013 196.508C613.558 192.963 615.549 188.156 615.549 183.143C615.549 178.131 613.558 173.323 610.013 169.779C606.469 166.234 601.662 164.243 596.649 164.243L596.648 164.246Z" fill="#121439"/>
</g>
</g>
<g opacity="0.48">
<path d="M108.798 84.4112C107.951 78.2712 116.664 73.2302 123.16 72.7112C126.283 72.823 129.408 72.5384 132.46 71.8642C138.96 69.6532 141.36 61.4262 147.602 58.8642C150.028 58.163 152.576 57.9859 155.075 58.3447C157.575 58.7035 159.97 59.5899 162.102 60.9452C166.374 63.6634 171.146 65.4995 176.139 66.3452C180.492 66.6702 185.306 65.0452 189.139 67.1922C192.972 69.3392 193.492 72.0672 196.096 73.6922C198.86 75.3548 202.037 76.2059 205.263 76.1482C208.474 76.0816 211.669 76.6106 214.688 77.7082C216.177 78.2918 217.437 79.3415 218.28 80.7005C219.124 82.0595 219.505 83.6548 219.367 85.2482L108.798 84.4112Z" fill="#ECECEC"/>
<path d="M441.445 134.521H160.726V368.893H441.445V134.521Z" fill="#F2ECEC"/>
<path d="M441.441 368.893V134.521H160.341V369.612H160.666L441.385 369.287H160.664V134.914L160.271 135.307H440.99V134.982C441.309 275.107 441.441 362.329 441.441 368.893Z" fill="#4F4F4F"/>
<path d="M378.789 300.719H349.605V368.9H378.789V300.719Z" fill="#BAB9B9"/>
<path d="M375.604 339.046C375.618 339.36 375.536 339.671 375.37 339.937C375.204 340.204 374.961 340.414 374.673 340.541C374.386 340.667 374.067 340.704 373.758 340.646C373.449 340.588 373.165 340.438 372.943 340.216C372.721 339.994 372.571 339.71 372.513 339.401C372.455 339.092 372.491 338.773 372.618 338.485C372.744 338.197 372.954 337.955 373.221 337.789C373.488 337.622 373.798 337.541 374.112 337.554C374.508 337.554 374.888 337.711 375.167 337.991C375.447 338.271 375.604 338.65 375.604 339.046Z" fill="#FAFAFA"/>
<path d="M441.438 237.026H301.438C378.783 237.026 441.438 236.891 441.438 237.026Z" fill="#E1E1E1"/>
<path d="M441.438 245.346H301.438C378.783 245.346 441.438 245.211 441.438 245.346Z" fill="#E1E1E1"/>
<path d="M441.438 253.665H301.438C378.783 253.665 441.438 253.531 441.438 253.665Z" fill="#E1E1E1"/>
<path d="M441.438 261.978H301.438C378.783 261.978 441.438 261.789 441.438 261.978Z" fill="#E1E1E1"/>
<path d="M441.438 270.232H301.438C378.783 270.232 441.438 270.103 441.438 270.232Z" fill="#E1E1E1"/>
<path d="M441.438 286.878H301.438C378.783 286.878 441.438 286.743 441.438 286.878Z" fill="#E1E1E1"/>
<path d="M441.438 295.198H301.438C378.783 295.198 441.438 295.063 441.438 295.198Z" fill="#E1E1E1"/>
<path d="M293.378 166.242H271.734V208.683H293.378V166.242Z" fill="white"/>
<path d="M293.348 208.751V166.223H271.734V165.898H293.634V208.407L293.348 208.751Z" fill="#1A2E35"/>
<path d="M282.659 208.683V187.364C282.659 199.129 282.788 208.683 282.659 208.683Z" fill="#1A2E35"/>
<path d="M293.121 188.985H282.198C288.246 188.985 293.121 188.856 293.121 188.985Z" fill="#1A2E35"/>
<path d="M417.068 302.475H395.424V344.916H417.068V302.475Z" fill="#FAFAFA"/>
<path d="M417.068 344.983V302.475H395.424V344.787H395.749V302.278H417.977V344.787L417.068 344.983Z" fill="#1A2E35"/>
<path d="M406.28 344.916V323.585C406.28 335.362 406.476 344.916 406.28 344.916Z" fill="#1A2E35"/>
<path d="M416.828 325.224H405.911C411.916 325.224 416.828 325.089 416.828 325.224Z" fill="#1A2E35"/>
<path d="M262.781 222.461C262.749 222.258 262.749 222.051 262.781 221.847V214.325H240.93V222.252H240.801V214.08H262.832V222.142L262.781 222.461Z" fill="#E1E1E1"/>
<path d="M399.065 157.922V150.382H383.401V157.793H383.143V150.185H398.985V157.203C398.985 157.203 399.132 157.922 399.065 157.922Z" fill="#E1E1E1"/>
<path d="M276.678 222.461H255.617V230.13H276.678V222.461Z" fill="#E1E1E1"/>
<path d="M302.546 152.721H281.485V160.39H302.546V152.721Z" fill="#E1E1E1"/>
<path d="M404.332 215.443H383.271V223.112H404.332V215.443Z" fill="#E1E1E1"/>
<path d="M440.529 187.039H423.957V194.708H440.529V187.039Z" fill="#E1E1E1"/>
<path d="M393.803 56.5962L200.895 58.0272L138.695 134.527H455.223L393.803 56.5962Z" fill="#F3B521"/>
<path d="M393.797 56.5962L398.021 62.0552L410.111 77.5222L455.021 134.622V134.229H138.597V134.843L200.73 58.3432L340.211 57.1702L379.601 56.7772H340.346L200.797 57.6862L138.597 134.266L138.075 134.917H455.905L455.58 134.463L410.28 77.1992L398.06 61.7912L393.797 56.5962Z" fill="#1A2E35"/>
<path d="M296.958 90.1952L311.774 114.895H378.592V90.1952L349.475 37.2952L311.775 89.7322L296.958 90.1952Z" fill="#F5F5F5"/>
<path d="M346.744 91.8152C352.773 91.8152 357.661 86.9275 357.661 80.8982C357.661 74.8689 352.773 69.9812 346.744 69.9812C340.714 69.9812 335.827 74.8689 335.827 80.8982C335.827 86.9275 340.714 91.8152 346.744 91.8152Z" fill="white"/>
<path d="M357.674 80.9051C357.846 80.0026 357.846 79.0757 357.674 78.1731C357.191 75.5942 355.779 73.2818 353.707 71.6731C352.231 70.5367 350.495 69.787 348.656 69.492C346.816 69.1971 344.933 69.3662 343.176 69.9841C340.994 70.7707 339.108 72.2087 337.771 74.1033C336.434 75.9979 335.712 78.2575 335.703 80.5761C335.706 82.8888 336.427 85.1435 337.765 87.0295C339.104 88.9156 340.994 90.3402 343.176 91.1071C344.925 91.7516 346.809 91.9404 348.651 91.6558C350.493 91.3712 352.233 90.6225 353.706 89.4801C355.769 87.8635 357.179 85.5547 357.673 82.9801C357.844 82.1001 357.844 81.1952 357.673 80.3151C357.588 81.1921 357.436 82.0613 357.219 82.9151C356.561 85.2581 355.144 87.3165 353.191 88.7671C351.973 89.6719 350.575 90.3045 349.091 90.622C347.608 90.9396 346.073 90.9348 344.592 90.6079C343.11 90.281 341.716 89.6397 340.504 88.7273C339.292 87.815 338.29 86.6529 337.566 85.3197C336.842 83.9865 336.413 82.5133 336.308 80.9998C336.202 79.4864 336.423 77.9679 336.956 76.5473C337.488 75.1267 338.32 73.837 339.394 72.7656C340.468 71.6942 341.76 70.866 343.182 70.3371C344.844 69.7431 346.627 69.5684 348.373 69.8287C350.119 70.089 351.774 70.7761 353.191 71.8291C355.144 73.2798 356.561 75.3382 357.219 77.6811C357.468 78.7271 357.62 79.794 357.673 80.8681L357.674 80.9051Z" fill="#1A2E35"/>
<path d="M386.066 149.798H315.871V222.59H386.066V149.798Z" fill="white"/>
<path d="M386.054 222.595V149.795H315.871V222.595V149.522H386.262V222.314L386.054 222.595Z" fill="#1A2E35"/>
<path d="M352.27 221.62V185.939C352.27 205.631 352.454 221.62 352.27 221.62Z" fill="#1A2E35"/>
<path d="M385.611 188.536H351.293C370.272 188.536 385.611 188.401 385.611 188.536Z" fill="#1A2E35"/>
<path d="M426.296 165.394H404.652V207.835H426.296V165.394Z" fill="#FAFAFA"/>
<path d="M426.361 207.841V165.4H404.719V208.038H404.461V165.468H426.361V207.909V207.841Z" fill="#1A2E35"/>
<path d="M415.576 207.842V186.523C415.576 198.349 415.705 207.842 415.576 207.842Z" fill="#1A2E35"/>
<path d="M426.1 188.082C422.464 188.286 418.819 188.286 415.183 188.082C411.524 188.286 407.857 188.286 404.198 188.082H415.183C418.818 187.847 422.465 187.847 426.1 188.082Z" fill="#1A2E35"/>
<path d="M468.547 285.835H457.888V368.9H468.547V285.835Z" fill="#F5F5F5"/>
<path d="M468.541 368.9C468.57 368.358 468.57 367.815 468.541 367.273V285.184H457.489C456.709 285.964 457.489 285.184 457.096 285.638V368.531H457.225V285.638C457.225 285.638 457.225 285.184 456.832 285.638H467.532L467.207 285.245V366.621L468.541 368.9Z" fill="#1A2E35"/>
<path d="M335.108 285.835H324.449V368.9H335.108V285.835Z" fill="#F5F5F5"/>
<path d="M335.107 368.9C335.137 368.358 335.137 367.815 335.107 367.273V285.184H324.055C323.275 285.964 324.055 285.184 323.662 285.638V368.531H323.791V285.831C323.791 285.831 323.791 285.377 323.398 285.831H334.057L333.664 285.438V366.845C335.107 368.317 335.107 368.9 335.107 368.9Z" fill="#1A2E35"/>
<path d="M251.521 286.29H482.577L432.271 244.757H307.225L251.521 286.29Z" fill="#FF735D"/>
<path d="M251.521 286.29H482.577L432.271 244.757H307.225L251.521 286.29Z" fill="#D3D3D3"/>
<path d="M307.225 244.757L350.968 286.29H251.135L307.225 244.757Z" fill="#F1D38E"/>
<path d="M378.587 90.1952H386.71L353.173 32.3481L349.489 37.2601L378.606 90.1601" fill="#FF735D"/>
<path d="M378.594 90.1972H386.718L353.111 32.2872L349.427 37.1972L378.594 90.1972ZM386.656 90.1972H378.674L349.49 37.2972L353.174 32.4222L386.656 90.1972Z" fill="#1A2E35"/>
<path d="M378.587 90.1952H386.71L353.173 32.3481L349.489 37.2601L378.606 90.1601" fill="#BAB9B9"/>
<path d="M311.776 114.897V89.8082H296.763L311.776 114.897Z" fill="#ECECEC"/>
<path d="M296.959 90.1952H284.869L326.727 32.0952L353.179 32.3532L311.779 89.7462L296.959 90.1952Z" fill="#F1D38E"/>
<path d="M296.958 90.1952H312.038L353.571 32.8712L354.025 32.2572H326.664L285.003 90.7572V91.0822L327.057 33.0382H353.509L353.184 32.4242L311.891 89.9402L301.103 90.1982L296.958 90.1952Z" fill="#1A2E35"/>
<path d="M227.612 134.718C227.612 134.718 227.219 187.168 227.219 251.708C227.219 316.248 227.219 368.698 227.612 368.698C228.005 368.698 228.005 316.31 228.005 251.708C228.005 187.106 227.802 134.718 227.612 134.718Z" fill="#1A2E35"/>
<path d="M300.79 303.77H279.146V346.211H300.79V303.77Z" fill="#FAFAFA"/>
<path d="M301.118 303.77H279.147V346.279H279.018V303.77H301.118Z" fill="#1A2E35"/>
<path d="M290.07 346.211V324.825C290.07 336.596 290.199 346.211 290.07 346.211Z" fill="#1A2E35"/>
<path d="M300.594 326.457H289.677C295.719 326.457 300.594 326.323 300.594 326.457Z" fill="#1A2E35"/>
<path d="M140.187 368.771C140.187 368.771 218.702 369.164 315.675 369.164C412.648 369.164 491.162 369.164 491.162 368.771C491.162 368.378 412.647 368.378 315.674 368.378C218.701 368.378 140.187 368.578 140.187 368.771Z" fill="#1A2E35"/>
<path d="M393.869 26.1792C393.022 20.0392 401.735 14.9982 408.231 14.4792C411.351 14.5808 414.472 14.3191 417.531 13.6992C424.031 11.4272 426.431 3.26118 432.673 0.699181C435.1 -0.00205594 437.647 -0.17916 440.147 0.179626C442.647 0.538413 445.042 1.42488 447.173 2.78018C451.442 5.51637 456.214 7.37235 461.209 8.23918C465.54 7.40949 470.009 7.67765 474.209 9.01918C478.047 11.1622 478.562 13.8942 481.166 15.8412C483.917 17.5356 487.104 18.3893 490.333 18.2972C493.544 18.2306 496.74 18.7595 499.758 19.8572C501.252 20.4349 502.516 21.4833 503.36 22.8438C504.205 24.2042 504.583 25.8027 504.437 27.3972L393.869 26.1792Z" fill="#ECECEC"/>
</g>
<mask id="mask1_4_420" style="mask-type:luminance" maskUnits="userSpaceOnUse" x="330" y="155" width="189" height="212">
<path d="M366.386 157.11C366.386 157.11 445.092 138.144 495.749 255.639C536.224 349.517 509.214 328.312 508.734 335.045C506.88 333.796 501.671 341.474 501.671 341.474L480.36 366.304L418.65 351.324L341.859 262.424L330 185.981L366.386 157.11Z" fill="white"/>
</mask>
<g mask="url(#mask1_4_420)">
<path d="M452.69 134.52H171.971V368.892H452.69V134.52Z" fill="#F2ECEC"/>
<path d="M452.687 368.892V134.52H171.587V369.611H171.912L452.631 369.286H171.91V134.913L171.517 135.306H452.236V134.981C452.555 275.106 452.687 362.328 452.687 368.892Z" fill="#4F4F4F"/>
<path d="M390.035 300.718H360.851V368.899H390.035V300.718Z" fill="#BAB9B9"/>
<path d="M386.85 339.045C386.863 339.359 386.782 339.67 386.616 339.936C386.45 340.203 386.207 340.414 385.919 340.54C385.631 340.666 385.312 340.703 385.003 340.645C384.695 340.587 384.411 340.437 384.188 340.215C383.966 339.993 383.816 339.709 383.758 339.4C383.7 339.091 383.737 338.772 383.863 338.484C383.99 338.196 384.2 337.954 384.467 337.788C384.733 337.621 385.044 337.54 385.358 337.553C385.754 337.553 386.133 337.71 386.413 337.99C386.693 338.27 386.85 338.649 386.85 339.045Z" fill="#FAFAFA"/>
<path d="M452.684 237.025H312.684C390.029 237.025 452.684 236.89 452.684 237.025Z" fill="#E1E1E1"/>
<path d="M452.684 245.345H312.684C390.029 245.345 452.684 245.21 452.684 245.345Z" fill="#E1E1E1"/>
<path d="M452.684 253.664H312.684C390.029 253.664 452.684 253.53 452.684 253.664Z" fill="#E1E1E1"/>
<path d="M452.684 261.977H312.684C390.029 261.977 452.684 261.788 452.684 261.977Z" fill="#E1E1E1"/>
<path d="M452.684 270.231H312.684C390.029 270.231 452.684 270.102 452.684 270.231Z" fill="#E1E1E1"/>
<path d="M452.684 286.877H312.684C390.029 286.877 452.684 286.742 452.684 286.877Z" fill="#E1E1E1"/>
<path d="M452.684 295.197H312.684C390.029 295.197 452.684 295.062 452.684 295.197Z" fill="#E1E1E1"/>
<path d="M428.313 302.474H406.669V344.915H428.313V302.474Z" fill="#FAFAFA"/>
<path d="M428.313 344.982V302.474H406.669V344.786H406.994V302.277H429.222V344.786L428.313 344.982Z" fill="#1A2E35"/>
<path d="M417.525 344.915V323.584C417.525 335.361 417.721 344.915 417.525 344.915Z" fill="#1A2E35"/>
<path d="M428.073 325.223H417.156C423.161 325.223 428.073 325.088 428.073 325.223Z" fill="#1A2E35"/>
<path d="M410.31 157.921V150.381H394.646V157.792H394.388V150.184H410.23V157.202C410.23 157.202 410.377 157.921 410.31 157.921Z" fill="#E1E1E1"/>
<path d="M415.578 215.442H394.517V223.111H415.578V215.442Z" fill="#E1E1E1"/>
<path d="M451.774 187.038H435.202V194.707H451.774V187.038Z" fill="#E1E1E1"/>
<path d="M397.311 149.797H327.116V222.589H397.311V149.797Z" fill="white"/>
<path d="M397.299 222.594V149.794H327.116V222.594V149.521H397.507V222.313L397.299 222.594Z" fill="#1A2E35"/>
<path d="M363.515 221.619V185.938C363.515 205.63 363.699 221.619 363.515 221.619Z" fill="#1A2E35"/>
<path d="M396.857 188.535H362.539C381.518 188.535 396.857 188.4 396.857 188.535Z" fill="#1A2E35"/>
<path d="M437.542 165.393H415.898V207.834H437.542V165.393Z" fill="#FAFAFA"/>
<path d="M437.607 207.84V165.399H415.965V208.037H415.707V165.467H437.607V207.908V207.84Z" fill="#1A2E35"/>
<path d="M426.821 207.841V186.522C426.821 198.348 426.95 207.841 426.821 207.841Z" fill="#1A2E35"/>
<path d="M437.345 188.081C433.709 188.285 430.065 188.285 426.428 188.081C422.77 188.285 419.102 188.285 415.443 188.081H426.428C430.064 187.846 433.71 187.846 437.345 188.081Z" fill="#1A2E35"/>
<path d="M479.792 285.834H469.133V368.899H479.792V285.834Z" fill="#F5F5F5"/>
<path d="M479.786 368.899C479.816 368.357 479.816 367.814 479.786 367.272V285.183H468.734C467.954 285.963 468.734 285.183 468.341 285.637V368.53H468.47V285.637C468.47 285.637 468.47 285.183 468.077 285.637H478.777L478.452 285.244V366.62L479.786 368.899Z" fill="#1A2E35"/>
<path d="M346.353 285.834H335.694V368.899H346.353V285.834Z" fill="#F5F5F5"/>
<path d="M346.353 368.899C346.383 368.357 346.383 367.814 346.353 367.272V285.183H335.301C334.521 285.963 335.301 285.183 334.908 285.637V368.53H335.037V285.83C335.037 285.83 335.037 285.376 334.644 285.83H345.303L344.91 285.437V366.844C346.353 368.316 346.353 368.899 346.353 368.899Z" fill="#1A2E35"/>
<path d="M262.767 286.289H493.823L443.517 244.756H318.471L262.767 286.289Z" fill="#FF735D"/>
<path d="M262.767 286.289H493.823L443.517 244.756H318.471L262.767 286.289Z" fill="#F1D38E"/>
<path d="M318.47 244.756L362.213 286.289H262.38L318.47 244.756Z" fill="#BAB9B9"/>
</g>
<path opacity="0.33" d="M473.251 360.495C470.405 362.302 467.322 363.708 464.091 364.674C434.147 374.112 387.957 347.829 357.378 301.8C326.799 255.771 320.427 203.011 340.727 179.042C342.859 176.431 345.353 174.138 348.134 172.233C377.043 152.999 430.121 179.877 463.996 230.916C497.871 281.955 501.96 341.278 473.251 360.495Z" fill="white"/>
<path d="M509.228 389.41L495.651 400.718L461.923 359.718L475.503 348.41L509.228 389.41Z" fill="#133A50"/>
<path d="M590.061 488.281L577 499.152C575.816 500.131 574.293 500.601 572.764 500.46C571.234 500.319 569.822 499.578 568.837 498.4L487.057 398.849C486.139 397.677 485.705 396.198 485.845 394.717C485.985 393.235 486.688 391.863 487.809 390.885L500.87 380.014C502.042 379.096 503.52 378.662 505.002 378.802C506.484 378.942 507.855 379.645 508.834 380.766L590.58 480.313C591.536 481.452 592.015 482.915 591.918 484.399C591.821 485.882 591.156 487.271 590.061 488.277V488.281Z" fill="#5B5A5E"/>
<path d="M478.529 215.325C439.35 156.352 377.985 128.166 341.511 152.41C305.037 176.654 307.305 243.993 346.488 303.124C385.671 362.255 447.069 390.287 483.506 366.039C519.943 341.791 517.75 274.336 478.529 215.325ZM480.162 349.995C477.315 351.802 474.233 353.208 471.002 354.174C441.059 363.612 394.868 337.329 364.289 291.3C333.71 245.271 327.337 192.509 347.643 168.539C349.775 165.927 352.269 163.635 355.05 161.73C383.959 142.496 437.037 169.374 470.912 220.413C504.787 271.452 509.06 330.752 480.35 349.982L480.162 349.995Z" fill="#F3B521"/>
<path d="M470.922 220.419C437.036 169.372 383.958 142.494 355.06 161.736C352.279 163.641 349.785 165.934 347.653 168.545C377.597 159.107 423.787 185.345 454.366 231.419C484.945 277.493 491.318 330.21 471.012 354.18C474.243 353.215 477.325 351.808 480.172 350.001C509.069 330.773 504.849 271.428 470.922 220.419Z" fill="#133A50"/>
<path d="M346.472 303.142C307.29 244.132 305.059 176.676 341.495 152.428L323.262 164.375C286.773 188.586 289.03 255.958 328.239 315.052C367.448 374.146 428.783 402.215 465.257 378.005L483.494 365.858C447.072 390.287 385.707 362.093 346.472 303.142Z" fill="#5B5A5E"/>
<path d="M234.827 415.688V427.084L227.281 415.688H224.773V431H227.281V419.582L234.827 431H237.335V415.688H234.827ZM252.179 424.928C252.179 421.122 249.451 418.68 245.997 418.68C242.543 418.68 239.815 421.122 239.815 424.928C239.815 428.734 242.433 431.198 245.887 431.198C249.363 431.198 252.179 428.734 252.179 424.928ZM242.367 424.928C242.367 422.178 244.061 420.858 245.953 420.858C247.823 420.858 249.605 422.178 249.605 424.928C249.605 427.678 247.757 429.02 245.887 429.02C243.995 429.02 242.367 427.678 242.367 424.928ZM265.367 415.71H260.373V431H265.367C270.273 431 273.485 428.118 273.485 423.41C273.485 418.68 270.273 415.71 265.367 415.71ZM262.881 428.954V417.756H265.367C268.975 417.756 270.911 419.912 270.911 423.41C270.911 426.886 268.975 428.954 265.367 428.954H262.881ZM275.134 424.884C275.134 428.624 277.664 431.198 280.81 431.198C282.834 431.198 284.286 430.23 285.056 429.196V431H287.586V418.878H285.056V420.638C284.308 419.648 282.9 418.68 280.854 418.68C277.664 418.68 275.134 421.144 275.134 424.884ZM285.056 424.928C285.056 427.546 283.274 429.02 281.382 429.02C279.512 429.02 277.708 427.502 277.708 424.884C277.708 422.266 279.512 420.858 281.382 420.858C283.274 420.858 285.056 422.332 285.056 424.928ZM291.276 427.634C291.276 430.098 292.618 431 294.774 431H296.754V428.91H295.214C294.158 428.91 293.806 428.536 293.806 427.634V420.924H296.754V418.878H293.806V415.864H291.276V418.878H289.846V420.924H291.276V427.634ZM298.23 424.884C298.23 428.624 300.76 431.198 303.906 431.198C305.93 431.198 307.382 430.23 308.152 429.196V431H310.682V418.878H308.152V420.638C307.404 419.648 305.996 418.68 303.95 418.68C300.76 418.68 298.23 421.144 298.23 424.884ZM308.152 424.928C308.152 427.546 306.37 429.02 304.478 429.02C302.608 429.02 300.804 427.502 300.804 424.884C300.804 422.266 302.608 420.858 304.478 420.858C306.37 420.858 308.152 422.332 308.152 424.928ZM319.691 431H322.199V424.312H327.259V422.266H322.199V417.756H328.689V415.71H319.691V431ZM342.563 424.928C342.563 421.122 339.835 418.68 336.381 418.68C332.927 418.68 330.199 421.122 330.199 424.928C330.199 428.734 332.817 431.198 336.271 431.198C339.747 431.198 342.563 428.734 342.563 424.928ZM332.751 424.928C332.751 422.178 334.445 420.858 336.337 420.858C338.207 420.858 339.989 422.178 339.989 424.928C339.989 427.678 338.141 429.02 336.271 429.02C334.379 429.02 332.751 427.678 332.751 424.928ZM356.021 418.878H353.513V425.632C353.513 427.854 352.303 428.998 350.455 428.998C348.629 428.998 347.419 427.854 347.419 425.632V418.878H344.933V426.006C344.933 429.394 347.089 431.176 349.927 431.176C351.357 431.176 352.721 430.582 353.513 429.548V431H356.021V418.878ZM367.932 431H370.418V423.85C370.418 420.462 368.284 418.68 365.446 418.68C363.994 418.68 362.652 419.274 361.838 420.264V418.878H359.33V431H361.838V424.224C361.838 422.002 363.048 420.858 364.896 420.858C366.722 420.858 367.932 422.002 367.932 424.224V431ZM372.781 424.884C372.781 428.624 375.311 431.198 378.501 431.198C380.481 431.198 381.933 430.274 382.703 429.174V431H385.233V414.72H382.703V420.572C381.779 419.428 380.107 418.68 378.523 418.68C375.311 418.68 372.781 421.144 372.781 424.884ZM382.703 424.928C382.703 427.546 380.921 429.02 379.029 429.02C377.159 429.02 375.355 427.502 375.355 424.884C375.355 422.266 377.159 420.858 379.029 420.858C380.921 420.858 382.703 422.332 382.703 424.928Z" fill="#5B5A5E"/>
</g>
<defs>
<clipPath id="clip0_4_420">
<rect width="615.549" height="592.604" fill="white"/>
</clipPath>
</defs>
</svg>
