<svg xmlns="http://www.w3.org/2000/svg" width="17.652" height="12.356" viewBox="0 0 17.652 12.356"><path d="M17.211,12.841h-.441a2.326,2.326,0,0,1-1.547-.494,1.307,1.307,0,0,0-.876-.389H13.9a1.307,1.307,0,0,0-.876.389,2.323,2.323,0,0,1-1.546.494,2.326,2.326,0,0,1-1.547-.494,1.307,1.307,0,0,0-.876-.389H8.6a1.307,1.307,0,0,0-.876.389,2.323,2.323,0,0,1-1.546.494,2.326,2.326,0,0,1-1.547-.494,1.307,1.307,0,0,0-.876-.389h-.45a1.307,1.307,0,0,0-.876.389,2.323,2.323,0,0,1-1.546.494H.441A.441.441,0,0,0,0,13.283v.883a.441.441,0,0,0,.441.441H.883a4.112,4.112,0,0,0,2.648-.878,4.111,4.111,0,0,0,2.648.878,4.112,4.112,0,0,0,2.648-.878,4.111,4.111,0,0,0,2.648.878,4.112,4.112,0,0,0,2.648-.878,4.111,4.111,0,0,0,2.648.878h.441a.441.441,0,0,0,.441-.441v-.883A.441.441,0,0,0,17.211,12.841ZM6.178,11.959V9.311h5.3v2.648a1.511,1.511,0,0,0,.949-.26,2.384,2.384,0,0,1,.817-.5V4.9A.883.883,0,1,1,15,4.9v.441a.441.441,0,0,0,.441.441h.883a.441.441,0,0,0,.441-.441V4.9a2.648,2.648,0,0,0-5.3,0V7.546h-5.3V4.9a.883.883,0,0,1,1.765,0v.441a.441.441,0,0,0,.441.441h.883a.441.441,0,0,0,.441-.441V4.9a2.648,2.648,0,0,0-5.3,0v6.3a2.388,2.388,0,0,1,.817.5A1.509,1.509,0,0,0,6.178,11.959Z" transform="translate(0 -2.25)" fill="#022d6a"/></svg>